<svg xmlns="http://www.w3.org/2000/svg" width="740.734" height="167.654" viewBox="0 0 740.734 167.654">
  <g id="Group_2903" data-name="Group 2903" transform="translate(-5065.914 -1300.805)">
    <g id="Group_2901" data-name="Group 2901" transform="translate(5065.914 1300.804)">
      <path id="Path_803" data-name="Path 803" d="M5195.852,1301.476v33.392H5151.2v127.817h-40.633V1334.868h-44.652v-33.392Z" transform="translate(-5065.914 -1298.253)"/>
      <path id="Path_804" data-name="Path 804" d="M5219.275,1398.814c-.262.254-.164.221-.437.479a54.684,54.684,0,0,1-13.633,9.045l23.289,54.348h-44.246l-20.621-47.9h-26.687v47.9H5096.3V1301.479h77.719c40.16,0,61.895,23.954,61.895,56.885v1.664ZM5169.3,1333.25h-32.359v50.209H5169.3c17.012,0,25.984-9.9,25.984-24.646,0-15.432-8.98-25.563-25.988-25.563Z" transform="translate(-4950.58 -1298.246)"/>
      <path id="Path_805" data-name="Path 805" d="M5128.662,1301.476h119.773v32.932h-79.129v30.169h72.051v32.936h-72.051v32.246h79.371v32.927h-72.012l-48-112.265Z" transform="translate(-4827.753 -1298.253)"/>
      <path id="Path_806" data-name="Path 806" d="M5157.266,1301.476h119.77v32.932H5197.91v30.169h72.047v32.936H5197.91v32.246h79.371v32.927h-84.406l-35.59-83.1Z" transform="translate(-4719.18 -1298.253)"/>
      <path id="Path_807" data-name="Path 807" d="M5252.531,1468.458c-39.691,0-66.383-18.419-66.383-50.9v-4.368h38.98v3.222c0,13.591,8.977,21.878,27.641,21.878,16.785,0,27.879-6.68,27.879-19.11A13.3,13.3,0,0,0,5269.3,1404.9l-41.344-10.133c-25.746-6.234-38.973-17.264-38.973-43.524,0-32.017,23.387-50.436,62.6-50.436,37.086,0,60.711,19.58,60.711,49.054v3.918h-37.562v-2.762c0-10.824-6.141-19.812-23.156-19.812-14.172,0-23.152,4.834-23.152,16.353a12.357,12.357,0,0,0,10.633,13.132l43.949,11.509c26.453,6.911,37.082,21.188,37.082,43.525C5320.094,1447.962,5290.8,1468.458,5252.531,1468.458Z" transform="translate(-4609.557 -1300.805)"/>
    </g>
    <g id="Group_2902" data-name="Group 2902" transform="translate(5783.751 1303.047)">
      <path id="Path_4227" data-name="Path 4227" d="M5225.943,1301.282a11.449,11.449,0,1,1-11.714,11.445,11.251,11.251,0,0,1,11.043-11.454C5225.489,1301.269,5225.721,1301.273,5225.943,1301.282Zm0,21.812a10.364,10.364,0,1,0-10.475-10.363,10.015,10.015,0,0,0,9.663,10.366C5225.4,1323.11,5225.671,1323.106,5225.943,1323.094Zm.754-9.12H5224v3.511h-1.677v-10.312h4.756a3.287,3.287,0,0,1,3.528,3.016,3.494,3.494,0,0,1,.006.385,3.41,3.41,0,0,1-2.218,3.181l2.157,3.73H5228.6Zm-.164-1.4c1.671,0,2.354-.755,2.354-2s-.756-2.051-2.354-2.051H5224v4.049Z" transform="translate(-5214.227 -1301.271)"/>
    </g>
  </g>
</svg>
