<svg width="741" height="168" viewBox="0 0 741 168" fill="none" xmlns="http://www.w3.org/2000/svg">
<g clip-path="url(#clip0)">
<path d="M129.938 3.2218V36.6139H85.2861V164.431H44.6528V36.6139H0.000976562V3.2218H129.938Z" fill="white"/>
<path d="M268.695 100.567C268.433 100.821 268.531 100.788 268.258 101.046C264.193 104.727 259.597 107.777 254.625 110.091L277.914 164.439H233.668L213.047 116.539H186.36V164.439H145.72V3.23186H223.439C263.599 3.23186 285.334 27.1859 285.334 60.1169V61.7808L268.695 100.567ZM218.72 35.0029H186.361V85.2118H218.72C235.732 85.2118 244.704 75.3118 244.704 60.5658C244.704 45.1338 235.724 35.0029 218.716 35.0029H218.72Z" fill="white"/>
<path d="M300.909 3.2218H420.682V36.1538H341.553V66.3229H413.604V99.2588H341.553V131.505H420.924V164.432H348.912L300.912 52.1669L300.909 3.2218Z" fill="white"/>
<path d="M438.086 3.2218H557.856V36.1538H478.73V66.3229H550.777V99.2588H478.73V131.505H558.101V164.432H473.695L438.105 81.3319L438.086 3.2218Z" fill="white"/>
<path d="M642.974 167.652C603.283 167.652 576.591 149.233 576.591 116.752V112.384H615.571V115.606C615.571 129.197 624.548 137.484 643.212 137.484C659.997 137.484 671.091 130.804 671.091 118.374C671.376 114.996 670.36 111.636 668.25 108.982C666.141 106.328 663.098 104.579 659.743 104.094L618.399 93.9608C592.653 87.7268 579.426 76.6969 579.426 50.4369C579.426 18.4199 602.813 0.000854492 642.026 0.000854492C679.112 0.000854492 702.737 19.5808 702.737 49.0548V52.9729H665.175V50.2108C665.175 39.3868 659.034 30.3988 642.019 30.3988C627.847 30.3988 618.867 35.2328 618.867 46.7518C618.64 49.8817 619.613 52.9804 621.588 55.4192C623.563 57.858 626.392 59.4542 629.5 59.8838L673.449 71.3928C699.902 78.3038 710.531 92.5808 710.531 114.918C710.537 147.156 681.243 167.652 642.974 167.652Z" fill="white"/>
<path d="M729.553 2.25252C731.805 2.30467 733.993 3.02028 735.84 4.30977C737.688 5.59926 739.114 7.40535 739.94 9.50167C740.766 11.598 740.955 13.8913 740.483 16.0946C740.012 18.2978 738.901 20.313 737.289 21.8877C735.677 23.4623 733.637 24.5264 731.423 24.9466C729.21 25.3669 726.921 25.1246 724.845 24.2502C722.768 23.3758 720.996 21.9081 719.749 20.031C718.503 18.1538 717.839 15.9507 717.839 13.6976C717.784 10.7143 718.917 7.83168 720.988 5.68367C723.059 3.53567 725.899 2.29815 728.882 2.24349C729.099 2.23949 729.331 2.24352 729.553 2.25252ZM729.553 24.0645C731.598 24.0426 733.59 23.4162 735.28 22.2641C736.97 21.112 738.281 19.4858 739.048 17.5902C739.816 15.6945 740.005 13.6141 739.593 11.611C739.18 9.60796 738.185 7.77176 736.731 6.33345C735.277 4.89515 733.43 3.91903 731.423 3.52816C729.415 3.13729 727.337 3.34906 725.45 4.1368C723.562 4.92453 721.95 6.25304 720.816 7.95504C719.682 9.65703 719.077 11.6564 719.078 13.7015C719.031 15.0168 719.244 16.3285 719.704 17.5615C720.164 18.7945 720.863 19.9247 721.761 20.8874C722.658 21.8501 723.736 22.6265 724.934 23.1722C726.132 23.7179 727.425 24.0222 728.741 24.0676C729.01 24.0806 729.281 24.0765 729.553 24.0645V24.0645ZM730.307 14.9445H727.61V18.4555H725.933V8.14351H730.689C731.556 8.07697 732.415 8.3571 733.076 8.92244C733.737 9.48779 734.148 10.2922 734.217 11.1595C734.226 11.2876 734.228 11.4162 734.223 11.5445C734.22 12.2373 734.006 12.9128 733.61 13.481C733.214 14.0493 732.654 14.4834 732.005 14.7255L734.162 18.4555H732.21L730.307 14.9445ZM730.143 13.5445C731.814 13.5445 732.497 12.7895 732.497 11.5445C732.497 10.2995 731.741 9.49349 730.143 9.49349H727.61V13.5426L730.143 13.5445Z" fill="white"/>
</g>
<defs>
<clipPath id="clip0">
<rect width="740.734" height="167.654" fill="white"/>
</clipPath>
</defs>
</svg>
